<?xml version="1.0" encoding="utf-8"?>
<!-- Generator: Adobe Illustrator 20.0.0, SVG Export Plug-In . SVG Version: 6.00 Build 0)  -->
<svg version="1.1" id="Layer_1" xmlns="http://www.w3.org/2000/svg" xmlns:xlink="http://www.w3.org/1999/xlink" x="0px" y="0px"
	 viewBox="0 0 144.3 144.3" style="enable-background:new 0 0 144.3 144.3;" xml:space="preserve">
<style type="text/css">
	.st0{fill:#FFFFFF;}
</style>
<title>Asset 8</title>
<g>
	<path class="st0" d="M107.8,75.8c-2-0.9-4.2-1.3-6.4-1.1h-9.2L90,87.3h8.9l0,0c7.3,0,10.9-2.7,10.9-8
		C109.8,77.9,109.1,76.5,107.8,75.8z"/>
	<path class="st0" d="M72.2,0C32.3,0,0,32.3,0,72.2c0,39.9,32.3,72.2,72.2,72.2s72.2-32.3,72.2-72.2C144.3,32.3,112,0,72.2,0z
		 M27.2,76.7c0-1.5,1.2-2.7,2.7-2.7h31c1.5,0,2.6,1.2,2.6,2.7c-0.1,1.4-1.2,2.6-2.6,2.7h-31C28.4,79.4,27.2,78.2,27.2,76.7z
		 M67.3,86.7c0,1.5-1.2,2.6-2.7,2.6H51.9c-1.5,0-2.6-1.2-2.6-2.6s1.2-2.7,2.6-2.7h12.7C66.1,84,67.3,85.2,67.3,86.7L67.3,86.7z
		 M72.2,67.1c-0.1,1.5-1.3,2.6-2.8,2.6H18.5c-1.5,0-2.7-1.2-2.7-2.7c0-1.5,1.2-2.6,2.7-2.6h51C71,64.4,72.2,65.6,72.2,67.1
		C72.2,67.1,72.2,67.1,72.2,67.1C72.2,67.1,72.2,67.1,72.2,67.1z M78,57.6c0,1.5-1.2,2.6-2.6,2.6H44c-1.5,0-2.6-1.2-2.6-2.7
		c0-1.5,1.2-2.6,2.7-2.6h31.3C76.8,54.9,78,56.1,78,57.6C78,57.6,78,57.6,78,57.6z M118.6,66.5c-1.4,2.1-3.5,3.7-5.9,4.4
		c1.7,0.4,3.2,1.5,4.2,2.9c1.2,1.6,1.8,3.6,1.7,5.6c0,5.3-1.8,9.1-5.5,11.6c-4.4,2.6-9.5,3.8-14.6,3.6h-17c-1.1,0-1.6-0.6-1.4-1.6
		l7.4-41.8c0-0.9,0.8-1.6,1.7-1.6c0,0,0,0,0,0H105c10.5,0,15.7,3.2,15.7,9.8C120.8,62,120,64.5,118.6,66.5z"/>
	<path class="st0" d="M110,57.7c-1.9-0.8-3.9-1.2-6-1h-8.6l-2.1,11.5l9,0c6.4,0,9.5-2.4,9.5-7.3C111.9,59.6,111.2,58.3,110,57.7z"/>
</g>
</svg>
